<svg width="47" height="47" viewBox="0 0 47 47" fill="none" xmlns="http://www.w3.org/2000/svg">
<path d="M5.91693 40.1151L7.64238 42.6769L5.0849 43.4009L5.91693 40.1151Z" fill="#FFF2E3"/>
<path d="M13.3861 41.0551L8.96771 42.3042L6.31708 38.5358L7.72284 32.9953L13.3861 41.0551Z" fill="#FFF2E3"/>
<path d="M18.717 39.5478L14.3092 40.7926L8.08698 31.5578L9.52026 25.8987L18.717 39.5478Z" fill="#FFF2E3"/>
<path d="M25.0493 37.7567L24.7148 37.8519L20.0783 39.1624L9.84839 24.6051L10.0961 23.627L11.794 16.9242L25.0493 37.7567Z" fill="#FFF2E3"/>
<path d="M30.4585 36.2281L25.9364 37.5068L12.2916 14.9617L13.6105 9.75356L30.4585 36.2281Z" fill="#FFF2E3"/>
<path d="M35.601 34.7758L31.3181 35.9868L14.1504 7.62797V7.62585L15.1052 3.85315L19.4305 8.06198L35.601 34.7758Z" fill="#FFF2E3"/>
<path d="M40.8642 33.2896L36.9729 34.3883L21.5052 10.0817L29.7239 18.0781L32.3152 20.5996L40.8642 33.2896Z" fill="#FFF2E3"/>
<path d="M44.3447 32.3051L42.3059 32.8809L36.6193 24.7872L44.3447 32.3051Z" fill="#FFF2E3"/>
<path d="M23.0131 36.1117H25.9273L25.9295 36.1229C25.9927 36.4459 26.1252 36.7512 26.3179 37.018C26.5105 37.2847 26.7587 37.5065 27.0454 37.6681C28.1808 38.301 30.1178 39.2534 31.6513 39.3545H22.5602V36.5645C22.5602 36.4444 22.6079 36.3293 22.6929 36.2443C22.7778 36.1594 22.893 36.1117 23.0131 36.1117Z" fill="#F49D1A"/>
<path d="M27.5559 36.1117L29.3878 37.1042H30.9842C31.5811 37.1042 32.1534 37.3413 32.5755 37.7633C32.9975 38.1853 33.2346 38.7577 33.2346 39.3545H22.5602V36.5646C22.5602 36.5051 22.572 36.4462 22.5947 36.3913C22.6175 36.3363 22.6508 36.2864 22.6929 36.2444C22.7349 36.2023 22.7848 36.169 22.8398 36.1462C22.8947 36.1235 22.9536 36.1117 23.0131 36.1117L27.5559 36.1117Z" fill="#F9BC40"/>
<path d="M27.2835 26.6837H23.28V35.1183H27.2835V26.6837Z" fill="#FDD39D"/>
<path d="M23.2898 34.6522H27.2722C27.3474 34.6522 27.4195 34.6821 27.4727 34.7353C27.5259 34.7885 27.5558 34.8607 27.5558 34.9359V36.1117H23.0062V34.9359C23.0062 34.8607 23.0361 34.7885 23.0893 34.7353C23.1424 34.6821 23.2146 34.6522 23.2898 34.6522Z" fill="#5BA6E2"/>
<path d="M32.7915 40.0424H22.9121C22.7998 40.0424 22.6921 39.9978 22.6127 39.9184C22.5333 39.839 22.4887 39.7313 22.4887 39.619V39.3544H33.215V39.619C33.215 39.7313 33.1704 39.839 33.0909 39.9184C33.0115 39.9978 32.9038 40.0424 32.7915 40.0424Z" fill="#5BA6E2"/>
<path d="M29.3878 37.1042H30.9842C31.2797 37.1042 31.5723 37.1624 31.8454 37.2754C32.1184 37.3885 32.3665 37.5543 32.5754 37.7633C32.7844 37.9722 32.9502 38.2203 33.0633 38.4933C33.1763 38.7664 33.2346 39.059 33.2346 39.3545H29.3878V37.1042Z" fill="#E42E21"/>
<path d="M29.3878 37.1042H30.9842C31.2797 37.1042 31.5723 37.1624 31.8454 37.2754C32.1184 37.3885 32.3665 37.5543 32.5754 37.7633C32.7844 37.9722 32.9502 38.2203 33.0633 38.4933C33.1763 38.7664 33.2346 39.059 33.2346 39.3545H29.3878V37.1042Z" fill="#E42E21"/>
<path d="M25.4579 40.0425H22.9119C22.7996 40.0425 22.692 39.9979 22.6125 39.9185C22.5331 39.8391 22.4885 39.7314 22.4885 39.6191V39.3545H25.8505C25.7387 39.5942 25.6074 39.8244 25.4579 40.0425Z" fill="#4481D1"/>
<path d="M32.1505 40.0425H22.9119C22.7996 40.0425 22.692 39.9979 22.6125 39.9185C22.5331 39.8391 22.4885 39.7314 22.4885 39.6191V39.3545H31.6513C31.8245 39.3671 31.9984 39.3671 32.1716 39.3545C32.2116 39.5829 32.2044 39.817 32.1505 40.0425Z" fill="#4481D1"/>
<path d="M31.6513 39.3545H29.3878V38.7849C30.1105 39.084 30.8731 39.276 31.6513 39.3545Z" fill="#C71B21"/>
<path d="M32.7326 38.8063C32.7048 38.8064 32.6774 38.7991 32.6533 38.7852C32.6291 38.7713 32.6091 38.7512 32.5952 38.7271C32.5892 38.717 31.9981 37.7163 31.1496 37.6559C31.1288 37.6545 31.1084 37.649 31.0898 37.6397C31.0711 37.6303 31.0545 37.6174 31.0408 37.6017C31.0271 37.586 31.0167 37.5677 31.0101 37.5479C31.0035 37.5281 31.0009 37.5072 31.0024 37.4864C31.0057 37.4446 31.0254 37.4057 31.0571 37.3782C31.0888 37.3507 31.13 37.3367 31.1719 37.3392C32.1897 37.4116 32.8426 38.5208 32.8699 38.5679C32.8838 38.5921 32.8912 38.6194 32.8912 38.6473C32.8912 38.6751 32.8839 38.7025 32.87 38.7267C32.8561 38.7508 32.8361 38.7709 32.812 38.7849C32.7879 38.7988 32.7605 38.8062 32.7326 38.8063V38.8063Z" fill="white"/>
<path d="M22.4885 39.6191V39.3545H32.3121C32.3518 39.5835 32.3403 39.8185 32.2784 40.0425H22.9119C22.7996 40.0425 22.692 39.9979 22.6125 39.9185C22.5331 39.8391 22.4885 39.7314 22.4885 39.6191Z" fill="#4481D1"/>
<path d="M23.0131 36.1117H24.2895C24.2032 36.4213 24.2136 36.7498 24.319 37.0534C24.4677 37.4457 24.7289 37.7854 25.0698 38.03C26.7478 39.3062 29.1278 37.5145 31.3994 38.7575C31.6955 38.92 31.9689 39.1207 32.2126 39.3545H22.5602V36.5645C22.5602 36.4444 22.6079 36.3293 22.6929 36.2443C22.7778 36.1594 22.893 36.1117 23.0131 36.1117Z" fill="#F49D1A"/>
<path d="M31.3994 38.7575C31.6955 38.92 31.9689 39.1207 32.2126 39.3545H29.3878V38.2939C30.0873 38.2703 30.7808 38.4301 31.3994 38.7575Z" fill="#C71B21"/>
<path d="M24.7904 31.7757C24.5329 32.6854 25.0114 32.9254 24.7741 34.3489C24.7302 34.6088 24.6703 34.8658 24.5948 35.1183H23.2801V27.0793C23.5052 26.9243 23.7451 26.7918 23.9961 26.6837H27.2836V29.3608C25.5382 30.1895 24.9808 31.1029 24.7904 31.7757Z" fill="#E9B77A"/>
<path d="M23.0761 34.7549C23.0801 34.7501 23.0822 34.7439 23.0866 34.7394C23.1377 34.6872 23.207 34.6567 23.28 34.6542C23.2835 34.6541 23.2864 34.6522 23.2899 34.6522H24.7148C24.5788 35.2722 24.3851 35.7096 24.2895 36.1117H23.0062V34.9359C23.0063 34.8986 23.0137 34.8617 23.0282 34.8273C23.0403 34.8008 23.0565 34.7763 23.0761 34.7549Z" fill="#4481D1"/>
<path d="M21.2844 36.1117H18.3702L18.3679 36.1229C18.3047 36.4459 18.1722 36.7512 17.9796 37.018C17.787 37.2847 17.5387 37.5065 17.2521 37.6681C16.1167 38.301 14.1796 39.2534 12.6462 39.3545H21.7372V36.5645C21.7372 36.4444 21.6895 36.3293 21.6046 36.2443C21.5197 36.1594 21.4045 36.1117 21.2844 36.1117Z" fill="#F49D1A"/>
<path d="M16.7416 36.1117L14.9097 37.1042H13.3133C12.7164 37.1042 12.1441 37.3413 11.722 37.7633C11.3 38.1853 11.0629 38.7577 11.0629 39.3545H21.7373V36.5646C21.7373 36.4445 21.6896 36.3293 21.6046 36.2444C21.5197 36.1594 21.4045 36.1117 21.2845 36.1117L16.7416 36.1117Z" fill="#F9BC40"/>
<path d="M21.0173 26.6837H17.0138V35.1183H21.0173V26.6837Z" fill="#FDD39D"/>
<path d="M21.2911 36.1116H16.7415V34.9357C16.7415 34.8605 16.7714 34.7883 16.8246 34.7351C16.8778 34.6819 16.9499 34.6521 17.0252 34.6521H21.0075C21.0827 34.6521 21.1549 34.6819 21.2081 34.7351C21.2613 34.7883 21.2911 34.8605 21.2911 34.9357V36.1116Z" fill="#5BA6E2"/>
<path d="M11.0826 39.3545H21.8089V39.6191C21.8089 39.7314 21.7643 39.8391 21.6849 39.9185C21.6055 39.9979 21.4978 40.0425 21.3855 40.0425H11.5061C11.3938 40.0425 11.2861 39.9979 11.2067 39.9185C11.1273 39.8391 11.0826 39.7314 11.0826 39.6191V39.3545Z" fill="#5BA6E2"/>
<path d="M14.9097 37.1042H13.3133C13.0178 37.1042 12.7251 37.1624 12.4521 37.2754C12.1791 37.3885 11.931 37.5543 11.722 37.7633C11.5131 37.9722 11.3473 38.2203 11.2342 38.4933C11.1211 38.7664 11.0629 39.059 11.0629 39.3545H14.9097V37.1042Z" fill="#E42E21"/>
<path d="M14.9097 37.1042H13.3133C13.0178 37.1042 12.7251 37.1624 12.4521 37.2754C12.1791 37.3885 11.931 37.5543 11.722 37.7633C11.5131 37.9722 11.3473 38.2203 11.2342 38.4933C11.1211 38.7664 11.0629 39.059 11.0629 39.3545H14.9097V37.1042Z" fill="#E42E21"/>
<path d="M18.8396 40.0425H21.3855C21.4978 40.0425 21.6055 39.9979 21.6849 39.9185C21.7644 39.8391 21.809 39.7314 21.809 39.6191V39.3545H18.447C18.5588 39.5942 18.6901 39.8244 18.8396 40.0425Z" fill="#4481D1"/>
<path d="M12.147 40.0425H21.3855C21.4978 40.0425 21.6055 39.9979 21.6849 39.9185C21.7643 39.8391 21.809 39.7314 21.809 39.6191V39.3545H12.6462C12.473 39.3671 12.2991 39.3671 12.1259 39.3545C12.0859 39.5829 12.093 39.817 12.147 40.0425Z" fill="#4481D1"/>
<path d="M12.6462 39.3545H14.9096V38.7849C14.1869 39.084 13.4244 39.276 12.6462 39.3545Z" fill="#C71B21"/>
<path d="M11.5648 38.8063C11.5369 38.8063 11.5095 38.7989 11.4853 38.785C11.4612 38.771 11.4412 38.751 11.4272 38.7268C11.4133 38.7026 11.406 38.6752 11.4061 38.6473C11.4061 38.6194 11.4135 38.592 11.4275 38.5679C11.4548 38.5208 12.1077 37.4116 13.1255 37.3392C13.1675 37.3364 13.2088 37.3503 13.2405 37.3779C13.2722 37.4055 13.2916 37.4445 13.2946 37.4864C13.2975 37.5284 13.2838 37.5697 13.2563 37.6015C13.2288 37.6333 13.1898 37.6529 13.1479 37.6559C12.2963 37.7165 11.7083 38.717 11.7025 38.7271C11.6885 38.7512 11.6684 38.7712 11.6442 38.7851C11.6201 38.799 11.5927 38.8063 11.5648 38.8063Z" fill="white"/>
<path d="M21.8089 39.6191V39.3545H11.9854C11.9456 39.5835 11.9571 39.8185 12.019 40.0425H21.3855C21.4978 40.0425 21.6055 39.9979 21.6849 39.9185C21.7643 39.8391 21.8089 39.7314 21.8089 39.6191Z" fill="#4481D1"/>
<path d="M21.2844 36.1117H20.008C20.0942 36.4213 20.0839 36.7498 19.9784 37.0534C19.8298 37.4457 19.5686 37.7854 19.2277 38.03C17.5496 39.3062 15.1697 37.5145 12.898 38.7575C12.602 38.92 12.3286 39.1207 12.0848 39.3545H21.7372V36.5645C21.7372 36.4444 21.6895 36.3293 21.6046 36.2444C21.5197 36.1594 21.4045 36.1117 21.2844 36.1117Z" fill="#F49D1A"/>
<path d="M12.898 38.7575C12.602 38.92 12.3286 39.1207 12.0848 39.3545H14.9096V38.2939C14.2101 38.2703 13.5166 38.4301 12.898 38.7575Z" fill="#C71B21"/>
<path d="M19.507 31.7757C19.7645 32.6854 19.2861 32.9254 19.5233 34.3489C19.5672 34.6088 19.6271 34.8658 19.7027 35.1183H21.0173V27.0793C20.7922 26.9243 20.5524 26.7918 20.3013 26.6837H17.0138V29.3608C18.7592 30.1895 19.3166 31.1029 19.507 31.7757Z" fill="#E9B77A"/>
<path d="M21.2214 34.7549C21.2173 34.7501 21.2152 34.7439 21.2109 34.7394C21.1598 34.6872 21.0905 34.6567 21.0175 34.6542C21.014 34.6541 21.0111 34.6522 21.0076 34.6522H19.5827C19.7187 35.2722 19.9124 35.7096 20.008 36.1117H21.2913V34.9359C21.2912 34.8986 21.2837 34.8617 21.2693 34.8273C21.2572 34.8008 21.241 34.7763 21.2214 34.7549Z" fill="#4481D1"/>
<path d="M38.2115 19.5407C38.0518 18.8316 37.8951 17.9876 37.8937 17.9792L38.1017 17.9407C38.1033 17.949 38.2594 18.789 38.4182 19.4944L38.2115 19.5407ZM39.6004 25.4164C39.226 25.0419 38.6454 24.0673 38.3587 23.4266L38.5518 23.3402C38.8311 23.9639 39.392 24.9086 39.7501 25.2667L39.6004 25.4164Z" fill="#6FB33E"/>
<path d="M38.5962 26.39C38.3111 25.4968 38.2055 24.0957 38.1422 23.2585L38.1391 23.2184L38.3504 23.2023L38.3533 23.2426C38.4157 24.0704 38.5203 25.4561 38.798 26.3254L38.5962 26.39Z" fill="#6FB33E"/>
<path d="M37.8034 25.0942L37.6057 25.0186C37.6111 25.0045 38.1443 23.603 38.2092 22.5713L37.8422 19.6917L37.8629 19.6592C38.1563 19.2031 39.0341 18.0364 39.4286 17.5785L39.5891 17.7166C39.1876 18.1828 38.3455 19.31 38.062 19.7417L38.4199 22.5647C38.3535 23.6489 37.8259 25.0357 37.8034 25.0942Z" fill="#6FB33E"/>
<path d="M38.7333 19.8298L38.5228 19.8066C38.6775 18.3935 39.0798 16.5867 39.0837 16.5685L39.2905 16.6148C39.2864 16.6328 38.8867 18.4284 38.7333 19.8298Z" fill="#6FB33E"/>
<path d="M38.2526 21.4579L38.2109 21.2504C38.6324 21.1716 39.0626 21.1493 39.49 21.1838L39.4702 21.3947C39.0633 21.3616 38.6539 21.3829 38.2526 21.4579ZM39.4388 22.3633C39.1634 22.3571 38.9393 22.3339 38.7224 22.3116C38.5098 22.2897 38.2899 22.267 38.0229 22.261L38.0279 22.0492C38.3033 22.0554 38.5274 22.0786 38.7443 22.1009C38.9568 22.1228 39.1768 22.1456 39.4437 22.1516L39.4388 22.3633Z" fill="#FDD39D"/>
<path d="M37.8935 22.9921L37.8727 23.203L39.0171 23.3159L39.0379 23.105L37.8935 22.9921Z" fill="#FDD39D"/>
<path d="M38.3372 21.3679H38.1255L38.3372 21.3655V21.3679Z" fill="black"/>
<path d="M38.9902 20.212C38.9838 20.2247 38.9796 20.2374 38.9732 20.2501C38.8031 20.6332 38.5753 20.9881 38.2979 21.3023C38.2069 21.4018 38.0671 21.5077 37.9506 21.4378C37.929 21.4247 37.9109 21.4065 37.8977 21.3849C37.8685 21.3372 37.8498 21.2838 37.8427 21.2282C37.8063 21.0363 37.7879 20.8414 37.7876 20.646L38.2661 21.4442C38.1094 21.4844 37.4171 21.5585 37.3219 21.6771C37.3024 21.7014 37.2899 21.7306 37.2859 21.7615C37.2819 21.7924 37.2865 21.8238 37.2991 21.8523C37.4108 22.1217 38.5517 21.9856 39.3924 22.2508L37.7159 22.2715C37.4849 22.331 37.4492 22.4104 37.4301 22.5501C37.4069 22.7322 38.1071 23.1109 38.2447 23.2104C38.0555 23.1875 37.8638 23.197 37.6778 23.2384C37.627 23.28 37.5925 23.3381 37.5801 23.4025C37.5803 23.4145 37.6057 23.4432 37.6057 23.4432C35.3123 23.4661 33.023 23.64 30.7524 23.9636C31.1865 22.4456 32.3149 19.9834 32.3149 19.9834C33.5005 20.03 34.6868 20.0765 35.8738 20.1231C36.0549 20.1425 36.2381 20.1274 36.4137 20.0786C36.5682 20.0257 37.5971 19.3991 38.0205 19.289C38.3931 19.1937 38.8864 19.2085 39.0473 19.5578C39.0835 19.6649 39.097 19.7783 39.0872 19.8909C39.0774 20.0035 39.0443 20.1128 38.9902 20.212Z" fill="#FDD39D"/>
<path d="M38.9902 20.212C38.9838 20.2247 38.9796 20.2374 38.9732 20.2501C38.8031 20.6332 38.5753 20.9881 38.2979 21.3023C38.2069 21.4018 38.0671 21.5077 37.9506 21.4378C37.929 21.4247 37.9109 21.4065 37.8977 21.3849C37.8685 21.3372 37.8498 21.2838 37.8427 21.2282C37.8063 21.0363 37.7879 20.8414 37.7876 20.646L38.2661 21.4442C38.1094 21.4844 37.4171 21.5585 37.3219 21.6771C37.3024 21.7014 37.2899 21.7306 37.2859 21.7615C37.2819 21.7924 37.2865 21.8238 37.2991 21.8523C37.4108 22.1217 38.5517 21.9856 39.3924 22.2508L37.7159 22.2715C37.4849 22.331 37.4492 22.4104 37.4301 22.5501C37.4069 22.7322 38.1071 23.1109 38.2447 23.2104C38.0555 23.1875 37.8638 23.197 37.6778 23.2384C37.627 23.28 37.5925 23.3381 37.5801 23.4025C37.5803 23.4145 37.6057 23.4432 37.6057 23.4432C35.3123 23.4661 33.023 23.64 30.7524 23.9636C31.1865 22.4456 32.3149 19.9834 32.3149 19.9834C33.5005 20.03 34.6868 20.0765 35.8738 20.1231C36.0549 20.1425 36.2381 20.1274 36.4137 20.0786C36.5682 20.0257 37.5971 19.3991 38.0205 19.289C38.3931 19.1937 38.8864 19.2085 39.0473 19.5578C39.0835 19.6649 39.097 19.7783 39.0872 19.8909C39.0774 20.0035 39.0443 20.1128 38.9902 20.212Z" fill="#FDD39D"/>
<path d="M36.8198 23.4539C36.8162 23.4502 36.8116 23.447 36.8082 23.4432C36.7913 23.424 36.7792 23.401 36.773 23.3762C36.7668 23.3514 36.7666 23.3254 36.7725 23.3005C36.7783 23.2756 36.7901 23.2525 36.8067 23.2331C36.8233 23.2136 36.8444 23.1984 36.8681 23.1888L37.0526 23.0891C36.9879 23.0846 36.9248 23.0668 36.8673 23.0367C36.8098 23.0067 36.7591 22.9651 36.7185 22.9145C36.6779 22.8639 36.6482 22.8054 36.6313 22.7428C36.6144 22.6802 36.6106 22.6147 36.6202 22.5506C36.6565 22.2787 36.9999 22.155 37.2915 22.1568C37.1165 22.1096 36.47 22.0928 36.4761 21.8586C36.4718 21.7946 36.4888 21.7309 36.5244 21.6776C36.5942 21.5959 36.68 21.5293 36.7765 21.4819C36.873 21.4345 36.9781 21.4074 37.0855 21.4021L38.2642 20.1333C38.3812 20.082 38.5126 20.0739 38.635 20.1104C38.7574 20.1468 38.863 20.2255 38.9328 20.3325C38.7681 20.6842 38.5543 21.0107 38.2979 21.3023C38.2748 21.3277 38.25 21.3514 38.2237 21.3734L38.2661 21.4442C38.1095 21.4844 37.4171 21.5585 37.3219 21.6771C37.3024 21.7014 37.2899 21.7306 37.2859 21.7615C37.2819 21.7924 37.2865 21.8238 37.2991 21.8523C37.3876 22.0655 38.1211 22.0253 38.84 22.1306C38.7604 22.2029 38.659 22.2467 38.5517 22.2551C38.5842 22.2502 38.6174 22.2519 38.6492 22.26L37.7159 22.2715C37.4849 22.331 37.4492 22.4104 37.4301 22.5501C37.407 22.7313 38.0995 23.1068 38.2421 23.2087L38.2379 23.2099C38.051 23.1865 37.8614 23.1962 37.6778 23.2385C37.6271 23.28 37.5925 23.3381 37.5802 23.4025C37.5803 23.4145 37.6057 23.4432 37.6057 23.4432C37.353 23.4437 37.09 23.4474 36.8198 23.4539Z" fill="#E9B77A"/>
<path d="M38.3076 20.0258C38.1375 20.409 37.9097 20.7638 37.6323 21.0781C37.5413 21.1776 37.6036 21.5748 37.4872 21.5049C37.4656 21.4918 37.4474 21.4736 37.4342 21.452C37.405 21.4043 37.3863 21.3509 37.3792 21.2953C37.3429 21.1034 37.3244 20.9085 37.3241 20.7131L36.3377 20.0979C36.3633 20.0927 36.3887 20.0863 36.4137 20.0786C36.5682 20.0257 37.5971 19.3991 38.0205 19.289C38.1194 19.2637 38.2203 19.2479 38.3221 19.2416C38.3456 19.2698 38.3656 19.3007 38.3818 19.3336C38.4179 19.4406 38.4315 19.554 38.4216 19.6666C38.4118 19.7792 38.3788 19.8885 38.3246 19.9877C38.3182 20.0004 38.314 20.0131 38.3076 20.0258Z" fill="#E9B77A"/>
<path d="M38.9714 16.8655C38.6265 16.8036 38.3204 16.6073 38.1203 16.3197C37.9202 16.032 37.8426 15.6767 37.9044 15.3318L38.2455 13.4314L40.8461 13.8981L40.5051 15.7986C40.4744 15.9693 40.4104 16.1324 40.3168 16.2784C40.2231 16.4244 40.1016 16.5506 39.9592 16.6497C39.8168 16.7487 39.6563 16.8188 39.4868 16.8558C39.3173 16.8929 39.1422 16.8962 38.9714 16.8655Z" fill="#F73A5A"/>
<path d="M40.9543 14.0143C40.997 13.7761 40.3935 13.4684 39.6063 13.3272C38.8192 13.1859 38.1463 13.2645 38.1036 13.5027C38.0608 13.7409 38.6643 14.0486 39.4515 14.1899C40.2387 14.3311 40.9115 14.2525 40.9543 14.0143Z" fill="#DB2D4E"/>
<path d="M40.4445 13.9228C40.472 13.7698 40.0843 13.5721 39.5786 13.4814C39.073 13.3906 38.6407 13.4411 38.6133 13.5942C38.5858 13.7473 38.9735 13.9449 39.4792 14.0357C39.9849 14.1264 40.4171 14.0759 40.4445 13.9228Z" fill="#F73A5A"/>
<path d="M39.983 13.84C39.9966 13.764 39.8044 13.666 39.5536 13.621C39.3028 13.576 39.0885 13.6011 39.0749 13.677C39.0612 13.753 39.2535 13.851 39.5042 13.896C39.755 13.9411 39.9694 13.916 39.983 13.84Z" fill="#DB2D4E"/>
<path d="M38.0253 16.1572L38.2592 16.4862C38.4284 16.6604 38.6423 16.7846 38.8775 16.845C39.1127 16.9054 39.3601 16.8998 39.5923 16.8287C39.8245 16.7576 40.0325 16.6238 40.1936 16.4421C40.3546 16.2603 40.4624 16.0376 40.505 15.7986L40.8461 13.8981C39.6152 15.9045 38.0253 16.1572 38.0253 16.1572Z" fill="#DB2D4E"/>
<path d="M37.9975 18.0359C38.0992 17.9884 38.1907 17.9213 38.2665 17.8385C38.3424 17.7557 38.4012 17.6588 38.4396 17.5532C38.478 17.4477 38.4952 17.3356 38.4903 17.2234C38.4854 17.1112 38.4584 17.0011 38.411 16.8993L37.8826 15.7666L36.3326 16.4897L36.8609 17.6224C36.9084 17.7241 36.9755 17.8156 37.0583 17.8914C37.1411 17.9673 37.238 18.0261 37.3436 18.0645C37.4491 18.1029 37.5612 18.1201 37.6734 18.1152C37.7856 18.1103 37.8957 18.0833 37.9975 18.0359Z" fill="#F73A5A"/>
<path d="M37.2535 16.4412C37.7227 16.2223 38.0494 15.9298 37.9831 15.7878C37.9169 15.6458 37.4829 15.7081 37.0136 15.927C36.5444 16.1459 36.2178 16.4384 36.284 16.5804C36.3502 16.7224 36.7843 16.6601 37.2535 16.4412Z" fill="#DB2D4E"/>
<path d="M37.2107 16.3493C37.5121 16.2087 37.722 16.0207 37.6795 15.9295C37.6369 15.8382 37.358 15.8783 37.0565 16.0189C36.7551 16.1595 36.5452 16.3475 36.5877 16.4387C36.6303 16.5299 36.9092 16.4899 37.2107 16.3493Z" fill="#F73A5A"/>
<path d="M37.1718 16.266C37.3213 16.1963 37.4254 16.1031 37.4043 16.0578C37.3832 16.0126 37.2449 16.0324 37.0954 16.1022C36.9459 16.1719 36.8418 16.2651 36.8629 16.3104C36.884 16.3556 37.0223 16.3358 37.1718 16.266Z" fill="#DB2D4E"/>
<path d="M38.4721 17.4358L38.3802 17.6805C38.3032 17.8176 38.1899 17.9307 38.0528 18.0075C37.9156 18.0843 37.7599 18.1217 37.6028 18.1157C37.4457 18.1097 37.2933 18.0605 37.1625 17.9734C37.0316 17.8864 36.9272 17.7649 36.8609 17.6224L36.3326 16.4897C37.4353 17.5412 38.4721 17.4358 38.4721 17.4358Z" fill="#DB2D4E"/>
<path d="M39.4915 17.7011C39.4295 17.6204 39.384 17.5283 39.3577 17.4301C39.3313 17.3318 39.3245 17.2293 39.3378 17.1284C39.351 17.0276 39.384 16.9303 39.4348 16.8421C39.4856 16.754 39.5533 16.6768 39.634 16.6148L40.5321 15.9251L41.4759 17.154L40.5778 17.8437C40.4971 17.9057 40.405 17.9511 40.3068 17.9775C40.2085 18.0039 40.106 18.0106 40.0051 17.9974C39.9043 17.9842 39.807 17.9512 39.7188 17.9004C39.6307 17.8495 39.5534 17.7818 39.4915 17.7011Z" fill="#F73A5A"/>
<path d="M41.4769 17.2471C41.5895 17.1607 41.4492 16.789 41.1635 16.4171C40.8778 16.0451 40.555 15.8137 40.4424 15.9002C40.3298 15.9866 40.4702 16.3582 40.7558 16.7302C41.0415 17.1021 41.3643 17.3336 41.4769 17.2471Z" fill="#DB2D4E"/>
<path d="M41.292 17.0063C41.3643 16.9508 41.2742 16.712 41.0906 16.473C40.9071 16.2341 40.6997 16.0854 40.6274 16.1409C40.555 16.1965 40.6452 16.4352 40.8287 16.6742C41.0122 16.9132 41.2197 17.0619 41.292 17.0063Z" fill="#F73A5A"/>
<path d="M41.1244 16.7882C41.1603 16.7607 41.1156 16.6422 41.0246 16.5237C40.9336 16.4052 40.8307 16.3315 40.7948 16.359C40.759 16.3866 40.8036 16.505 40.8947 16.6235C40.9857 16.7421 41.0886 16.8158 41.1244 16.7882Z" fill="#DB2D4E"/>
<path d="M39.3607 17.0205L39.3323 17.2555C39.3369 17.3979 39.3807 17.5362 39.4589 17.6552C39.537 17.7743 39.6465 17.8694 39.7753 17.9302C39.9041 17.991 40.0471 18.0151 40.1887 17.9999C40.3303 17.9846 40.465 17.9306 40.5778 17.8437L41.4758 17.154C40.1501 17.5384 39.3607 17.0205 39.3607 17.0205Z" fill="#DB2D4E"/>
<path d="M37.8831 21.4021C37.7757 21.4074 37.6705 21.4345 37.5741 21.4819C37.4776 21.5293 37.3918 21.5959 37.322 21.6776C37.2863 21.7309 37.2694 21.7946 37.2737 21.8585C37.2675 22.0928 37.9141 22.1096 38.0891 22.1569C37.7974 22.1551 37.454 22.2787 37.4178 22.5506C37.4082 22.6147 37.4119 22.6802 37.4288 22.7428C37.4458 22.8054 37.4755 22.8639 37.5161 22.9145C37.5567 22.9651 37.6073 23.0067 37.6648 23.0368C37.7223 23.0668 37.7854 23.0846 37.8501 23.0891L37.6656 23.1888C37.6419 23.1985 37.6209 23.2136 37.6043 23.2331C37.5876 23.2525 37.5759 23.2756 37.57 23.3005C37.5642 23.3254 37.5643 23.3514 37.5705 23.3762C37.5767 23.401 37.5888 23.424 37.6057 23.4432C37.7035 23.5384 37.8182 23.6147 37.9438 23.6681C38.1211 23.7377 38.31 23.7731 38.5004 23.7726C38.6822 23.8048 38.8694 23.7663 39.0236 23.6648C39.1616 23.5448 39.1413 23.2597 38.9605 23.2323C39.1359 23.1917 39.3031 23.1219 39.4553 23.0259C39.531 22.9771 39.5934 22.9102 39.6369 22.8314C39.6803 22.7525 39.7036 22.6641 39.7045 22.574C39.7026 22.5296 39.6918 22.486 39.6728 22.4458C39.6538 22.4056 39.6269 22.3696 39.5939 22.3399C39.5608 22.3102 39.5221 22.2874 39.4801 22.2729C39.4381 22.2583 39.3936 22.2522 39.3493 22.2551C39.4663 22.2481 39.577 22.1994 39.6612 22.1177C39.7453 22.0361 39.7974 21.9269 39.8079 21.8102C39.8184 21.6934 39.7867 21.5767 39.7185 21.4813C39.6503 21.3859 39.5501 21.3182 39.4362 21.2904C39.5763 21.2149 39.6882 21.0963 39.7554 20.9521C39.8226 20.8079 39.8414 20.6458 39.8092 20.4901C39.7875 20.4149 39.7501 20.3451 39.6995 20.2854C39.6489 20.2257 39.5862 20.1775 39.5156 20.1437C39.445 20.11 39.368 20.0917 39.2898 20.0899C39.2116 20.0881 39.1339 20.1029 39.0618 20.1333L37.8831 21.4021Z" fill="#FDD39D"/>
<path d="M37.883 21.4021L39.0617 20.1333C39.071 20.1283 39.0812 20.1268 39.0906 20.1225C39.0759 20.2481 39.042 20.3707 38.9902 20.486C38.9838 20.4987 38.9796 20.5114 38.9732 20.5241C38.8031 20.9072 38.5753 21.2621 38.2979 21.5763C38.256 21.6262 38.2023 21.6648 38.1416 21.6885C38.0809 21.7122 38.0152 21.7202 37.9506 21.7118C37.8606 21.711 37.691 21.5142 37.6805 21.4591C37.6747 21.4287 37.6722 21.3974 37.6674 21.3667C37.6851 21.3648 37.8656 21.4024 37.883 21.4021Z" fill="#E9B77A"/>
<path d="M36.4137 20.0786C36.5682 20.0257 37.5971 19.3991 38.0206 19.289C38.3932 19.1937 38.8865 19.2085 39.0474 19.5578C39.0835 19.6649 39.0971 19.7783 39.0872 19.8909C39.0774 20.0035 39.0444 20.1128 38.9902 20.212C38.9839 20.2247 38.9796 20.2374 38.9733 20.2501C38.8031 20.6332 38.5753 20.9881 38.2979 21.3023C38.2069 21.4018 38.0671 21.5077 37.9507 21.4378C37.9291 21.4247 37.9109 21.4065 37.8977 21.3849C37.8685 21.3372 37.8498 21.2838 37.8428 21.2282C37.8064 21.0363 37.7879 20.8414 37.7877 20.646" fill="#FDD39D"/>
<path d="M30.7524 23.9636C31.3921 23.8682 32.0997 23.782 32.8334 23.7085C33.0173 22.8309 33.1234 22.7781 33.3139 21.8806C33.4922 21.0409 33.6094 20.4675 33.5774 20.0329C33.1564 20.0164 32.7356 19.9999 32.3149 19.9834C32.3149 19.9834 31.1865 22.4456 30.7524 23.9636Z" fill="#E9B77A"/>
<path d="M5.96038 19.5407L5.75363 19.4944C5.9122 18.789 6.0683 17.949 6.06996 17.9407L6.27795 17.9792C6.2765 17.9876 6.11978 18.8316 5.96038 19.5407ZM4.57143 25.4164L4.42175 25.2667C4.77984 24.9084 5.34055 23.9637 5.61987 23.3402L5.81297 23.4266C5.5262 24.0671 4.94586 25.0419 4.57143 25.4164Z" fill="#6FB33E"/>
<path d="M5.57563 26.39L5.37384 26.3254C5.65151 25.4552 5.75612 24.0688 5.81877 23.2403L5.82145 23.2023L6.03274 23.2184L6.02985 23.2562C5.96659 24.094 5.86074 25.496 5.57563 26.39Z" fill="#6FB33E"/>
<path d="M6.36851 25.0942C6.34597 25.0357 5.81814 23.6489 5.75137 22.5845L6.10987 19.7417C5.82642 19.31 4.98412 18.1828 4.58261 17.7166L4.74305 17.5785C5.13753 18.0364 6.01539 19.2031 6.30876 19.6592L6.32944 19.6917L5.96204 22.5911C6.02737 23.603 6.56079 25.0045 6.56616 25.0186L6.36851 25.0942Z" fill="#6FB33E"/>
<path d="M5.43836 19.8298C5.28495 18.428 4.8853 16.6328 4.88116 16.6148L5.08792 16.5685C5.09184 16.5867 5.49418 18.3935 5.64883 19.8066L5.43836 19.8298Z" fill="#6FB33E"/>
<path d="M5.91904 21.4579C5.5179 21.3827 5.10849 21.3614 4.7017 21.3947L4.68185 21.1838C5.10924 21.1493 5.53932 21.1716 5.9608 21.2504L5.91904 21.4579ZM4.73292 22.3633L4.72796 22.1516C4.99508 22.1456 5.21486 22.1228 5.4276 22.1009C5.64448 22.0786 5.8686 22.0554 6.14399 22.0492L6.14895 22.261C5.88183 22.2669 5.66206 22.2897 5.44931 22.3116C5.23243 22.3339 5.00831 22.3571 4.73292 22.3633Z" fill="#FDD39D"/>
<path d="M6.27835 22.9924L5.13382 23.1046L5.1545 23.3155L6.29903 23.2033L6.27835 22.9924Z" fill="#FDD39D"/>
<path d="M6.04628 21.3679H5.83456L6.04628 21.3655V21.3679Z" fill="black"/>
<path d="M5.18156 20.212C5.18791 20.2247 5.19215 20.2374 5.19851 20.2501C5.36868 20.6332 5.59643 20.9881 5.87386 21.3023C5.96488 21.4018 6.10464 21.5077 6.2211 21.4378C6.24271 21.4247 6.26086 21.4065 6.27402 21.3849C6.30324 21.3372 6.32198 21.2838 6.32902 21.2282C6.3654 21.0363 6.38385 20.8414 6.38412 20.646L5.90562 21.4442C6.06229 21.4844 6.75461 21.5585 6.84987 21.6771C6.86937 21.7014 6.88181 21.7306 6.88582 21.7615C6.88983 21.7924 6.88526 21.8238 6.87261 21.8523C6.76092 22.1217 5.62 21.9856 4.77933 22.2508L6.45581 22.2715C6.68684 22.331 6.72254 22.4104 6.74162 22.5501C6.76488 22.7322 6.06465 23.1109 5.92706 23.2104C6.11623 23.1875 6.30792 23.197 6.49391 23.2384C6.54469 23.28 6.57926 23.3381 6.59159 23.4025C6.59145 23.4145 6.56606 23.4432 6.56606 23.4432C8.85941 23.4661 11.1488 23.64 13.4193 23.9636C12.9853 22.4456 11.8568 19.9834 11.8568 19.9834C10.6713 20.03 9.48499 20.0765 8.29795 20.1231C8.1168 20.1425 7.93361 20.1274 7.75807 20.0786C7.60352 20.0257 6.57464 19.3991 6.15122 19.289C5.7786 19.1937 5.2853 19.2085 5.12439 19.5578C5.08827 19.6649 5.0747 19.7783 5.08454 19.8909C5.09438 20.0035 5.12741 20.1128 5.18156 20.212Z" fill="#FDD39D"/>
<path d="M5.18156 20.212C5.18791 20.2247 5.19215 20.2374 5.19851 20.2501C5.36868 20.6332 5.59643 20.9881 5.87386 21.3023C5.96488 21.4018 6.10464 21.5077 6.2211 21.4378C6.24271 21.4247 6.26086 21.4065 6.27402 21.3849C6.30324 21.3372 6.32198 21.2838 6.32902 21.2282C6.3654 21.0363 6.38385 20.8414 6.38412 20.646L5.90562 21.4442C6.06229 21.4844 6.75461 21.5585 6.84987 21.6771C6.86937 21.7014 6.88181 21.7306 6.88582 21.7615C6.88983 21.7924 6.88526 21.8238 6.87261 21.8523C6.76092 22.1217 5.62 21.9856 4.77933 22.2508L6.45581 22.2715C6.68684 22.331 6.72254 22.4104 6.74162 22.5501C6.76488 22.7322 6.06465 23.1109 5.92706 23.2104C6.11623 23.1875 6.30792 23.197 6.49391 23.2384C6.54469 23.28 6.57926 23.3381 6.59159 23.4025C6.59145 23.4145 6.56606 23.4432 6.56606 23.4432C8.85941 23.4661 11.1488 23.64 13.4193 23.9636C12.9853 22.4456 11.8568 19.9834 11.8568 19.9834C10.6713 20.03 9.48499 20.0765 8.29795 20.1231C8.1168 20.1425 7.93361 20.1274 7.75807 20.0786C7.60352 20.0257 6.57464 19.3991 6.15122 19.289C5.7786 19.1937 5.2853 19.2085 5.12439 19.5578C5.08827 19.6649 5.0747 19.7783 5.08454 19.8909C5.09438 20.0035 5.12741 20.1128 5.18156 20.212Z" fill="#FDD39D"/>
<path d="M7.35199 23.4539C7.35559 23.4502 7.36015 23.447 7.3636 23.4432C7.3805 23.424 7.39256 23.401 7.39876 23.3762C7.40497 23.3514 7.40515 23.3254 7.39928 23.3005C7.39342 23.2756 7.38168 23.2525 7.36505 23.2331C7.34842 23.2136 7.32738 23.1984 7.30369 23.1888L7.11917 23.0891C7.18389 23.0846 7.24698 23.0668 7.30447 23.0367C7.36196 23.0067 7.41261 22.9651 7.45323 22.9145C7.49384 22.8639 7.52354 22.8054 7.54046 22.7428C7.55738 22.6802 7.56115 22.6147 7.55153 22.5506C7.51529 22.2787 7.17189 22.155 6.88023 22.1568C7.05524 22.1096 7.7018 22.0928 7.69564 21.8586C7.69996 21.7946 7.68297 21.7309 7.64732 21.6776C7.57752 21.5959 7.49175 21.5293 7.39526 21.4819C7.29877 21.4345 7.19362 21.4074 7.08625 21.4021L5.90755 20.1333C5.79056 20.082 5.65917 20.0739 5.53675 20.1104C5.41432 20.1468 5.30881 20.2255 5.23895 20.3325C5.40366 20.6842 5.61743 21.0107 5.87388 21.3023C5.89697 21.3277 5.92175 21.3514 5.94805 21.3734L5.90564 21.4442C6.0623 21.4844 6.75463 21.5585 6.84989 21.6771C6.86939 21.7014 6.88182 21.7306 6.88584 21.7615C6.88985 21.7924 6.88528 21.8238 6.87263 21.8523C6.78421 22.0655 6.0507 22.0253 5.33178 22.1306C5.41141 22.2029 5.51281 22.2467 5.62004 22.2551C5.58753 22.2502 5.55439 22.2519 5.52253 22.26L6.45582 22.2715C6.68685 22.331 6.72257 22.4104 6.74163 22.5501C6.76478 22.7313 6.07226 23.1068 5.92969 23.2087L5.93386 23.2099C6.12078 23.1865 6.31035 23.1962 6.49392 23.2384C6.5447 23.28 6.57927 23.3381 6.5916 23.4025C6.59146 23.4145 6.56607 23.4432 6.56607 23.4432C6.81877 23.4437 7.08174 23.4474 7.35199 23.4539Z" fill="#E9B77A"/>
<path d="M5.86408 20.0258C6.03425 20.409 6.262 20.7638 6.53943 21.0781C6.63045 21.1776 6.56811 21.5748 6.68456 21.5049C6.70617 21.4918 6.72432 21.4736 6.73749 21.452C6.7667 21.4043 6.78545 21.3509 6.79248 21.2953C6.82886 21.1034 6.84731 20.9085 6.84758 20.7131L7.83402 20.0979C7.8084 20.0927 7.78305 20.0863 7.75807 20.0786C7.60352 20.0257 6.57463 19.3991 6.15121 19.289C6.05238 19.2637 5.9514 19.2479 5.84959 19.2416C5.82618 19.2698 5.80617 19.3007 5.78997 19.3336C5.75385 19.4406 5.74028 19.554 5.75012 19.6666C5.75996 19.7792 5.79299 19.8885 5.84714 19.9877C5.85349 20.0004 5.85773 20.0131 5.86408 20.0258Z" fill="#E9B77A"/>
<path d="M5.20037 16.8655C5.54523 16.8036 5.85139 16.6073 6.05148 16.3197C6.25157 16.032 6.32921 15.6767 6.26732 15.3319L5.92627 13.4314L3.32565 13.8981L3.66671 15.7986C3.7286 16.1434 3.92495 16.4496 4.21257 16.6497C4.50018 16.8498 4.85551 16.9274 5.20037 16.8655Z" fill="#F73A5A"/>
<path d="M4.72023 14.1899C5.50743 14.0486 6.11091 13.7409 6.06816 13.5027C6.02541 13.2645 5.35261 13.1859 4.56541 13.3272C3.77822 13.4684 3.17473 13.7761 3.21749 14.0143C3.26024 14.2525 3.93304 14.3311 4.72023 14.1899Z" fill="#DB2D4E"/>
<path d="M4.69257 14.0357C5.19826 13.9449 5.58593 13.7473 5.55846 13.5942C5.531 13.4411 5.09878 13.3906 4.59309 13.4814C4.0874 13.5721 3.69973 13.7698 3.7272 13.9228C3.75467 14.0759 4.18688 14.1264 4.69257 14.0357Z" fill="#F73A5A"/>
<path d="M4.66752 13.896C4.9183 13.851 5.11054 13.753 5.09691 13.677C5.08328 13.6011 4.86893 13.576 4.61816 13.621C4.36739 13.666 4.17514 13.764 4.18877 13.84C4.20241 13.916 4.41675 13.9411 4.66752 13.896Z" fill="#DB2D4E"/>
<path d="M6.14647 16.1572L5.91253 16.4862C5.74336 16.6604 5.5294 16.7846 5.2942 16.845C5.05899 16.9054 4.81168 16.8998 4.57948 16.8287C4.34728 16.7576 4.13921 16.6238 3.97816 16.4421C3.81711 16.2603 3.70935 16.0376 3.66672 15.7986L3.32568 13.8981C4.55652 15.9045 6.14647 16.1572 6.14647 16.1572Z" fill="#DB2D4E"/>
<path d="M6.1743 18.0359C5.96876 17.94 5.80972 17.7664 5.73217 17.5532C5.65463 17.3401 5.66492 17.1049 5.7608 16.8993L6.28916 15.7666L7.83919 16.4897L7.31083 17.6224C7.21495 17.8279 7.04134 17.9869 6.8282 18.0645C6.61506 18.142 6.37985 18.1317 6.1743 18.0359Z" fill="#F73A5A"/>
<path d="M7.88775 16.5804C7.95398 16.4384 7.6273 16.1459 7.15809 15.927C6.68889 15.7081 6.25482 15.6458 6.18859 15.7878C6.12236 15.9298 6.44903 16.2223 6.91824 16.4412C7.38745 16.66 7.82151 16.7224 7.88775 16.5804Z" fill="#DB2D4E"/>
<path d="M7.58399 16.4387C7.62655 16.3475 7.41666 16.1595 7.11519 16.0189C6.81372 15.8783 6.53484 15.8382 6.49228 15.9295C6.44972 16.0207 6.65961 16.2087 6.96108 16.3493C7.26255 16.4899 7.54143 16.5299 7.58399 16.4387Z" fill="#F73A5A"/>
<path d="M7.30885 16.3104C7.32995 16.2651 7.22585 16.1719 7.07634 16.1022C6.92682 16.0324 6.78851 16.0126 6.7674 16.0578C6.7463 16.1031 6.85039 16.1963 6.99991 16.266C7.14942 16.3358 7.28774 16.3556 7.30885 16.3104Z" fill="#DB2D4E"/>
<path d="M5.69968 17.4358L5.79154 17.6805C5.86853 17.8176 5.98184 17.9307 6.11901 18.0075C6.25617 18.0843 6.41187 18.1217 6.56896 18.1157C6.72604 18.1097 6.87842 18.0605 7.00932 17.9734C7.14021 17.8864 7.24455 17.7649 7.31084 17.6224L7.83919 16.4897C6.73649 17.5412 5.69968 17.4358 5.69968 17.4358Z" fill="#DB2D4E"/>
<path d="M4.68026 17.7011C4.80541 17.5382 4.86071 17.3322 4.83397 17.1284C4.80724 16.9247 4.70067 16.7399 4.53771 16.6148L3.63966 15.9251L2.69586 17.154L3.5939 17.8437C3.75687 17.9688 3.96287 18.0241 4.1666 17.9974C4.37033 17.9707 4.5551 17.8641 4.68026 17.7011Z" fill="#F73A5A"/>
<path d="M3.41594 16.7302C3.70159 16.3582 3.8419 15.9866 3.72932 15.9002C3.61674 15.8137 3.29391 16.0451 3.00826 16.4171C2.7226 16.789 2.58229 17.1607 2.69487 17.2471C2.80745 17.3336 3.13028 17.1021 3.41594 16.7302Z" fill="#DB2D4E"/>
<path d="M3.34306 16.6742C3.52659 16.4353 3.61673 16.1965 3.5444 16.1409C3.47207 16.0854 3.26465 16.2341 3.08112 16.4731C2.89759 16.712 2.80745 16.9508 2.87978 17.0063C2.95211 17.0619 3.15953 16.9132 3.34306 16.6742Z" fill="#F73A5A"/>
<path d="M3.27706 16.6235C3.36808 16.505 3.41277 16.3866 3.37688 16.3591C3.34099 16.3315 3.23812 16.4052 3.1471 16.5237C3.05608 16.6423 3.01139 16.7607 3.04728 16.7882C3.08317 16.8158 3.18604 16.7421 3.27706 16.6235Z" fill="#DB2D4E"/>
<path d="M4.81106 17.0205L4.83946 17.2555C4.83485 17.3979 4.79105 17.5362 4.71288 17.6552C4.63471 17.7743 4.52521 17.8694 4.39643 17.9302C4.26766 17.991 4.12459 18.0151 3.983 17.9999C3.84141 17.9846 3.70677 17.9306 3.59392 17.8437L2.69589 17.154C4.02167 17.5384 4.81106 17.0205 4.81106 17.0205Z" fill="#DB2D4E"/>
<path d="M6.28871 21.4021C6.39607 21.4074 6.50123 21.4345 6.59772 21.4819C6.69421 21.5293 6.77999 21.5959 6.84979 21.6776C6.88543 21.7309 6.90242 21.7946 6.8981 21.8585C6.90426 22.0928 6.25771 22.1096 6.08269 22.1569C6.37435 22.1551 6.71774 22.2787 6.75399 22.5506C6.76361 22.6147 6.75984 22.6802 6.74292 22.7428C6.726 22.8054 6.6963 22.8639 6.65568 22.9145C6.61507 22.9651 6.56442 23.0067 6.50693 23.0368C6.44944 23.0668 6.38634 23.0846 6.32162 23.0891L6.50615 23.1888C6.52984 23.1985 6.55088 23.2136 6.56751 23.2331C6.58414 23.2525 6.59588 23.2756 6.60174 23.3005C6.60761 23.3254 6.60743 23.3514 6.60122 23.3762C6.59502 23.401 6.58296 23.424 6.56607 23.4432C6.46826 23.5384 6.3536 23.6147 6.22793 23.6681C6.05064 23.7377 5.86179 23.7731 5.67132 23.7726C5.48957 23.8048 5.30237 23.7663 5.14818 23.6648C5.01019 23.5448 5.03047 23.2597 5.21123 23.2323C5.03591 23.1917 4.86866 23.1219 4.71644 23.0259C4.64077 22.9771 4.5784 22.9102 4.53491 22.8314C4.49142 22.7525 4.46817 22.6641 4.46723 22.574C4.46919 22.5296 4.47999 22.486 4.49899 22.4458C4.51799 22.4056 4.54482 22.3696 4.5779 22.3399C4.61098 22.3102 4.64965 22.2874 4.69164 22.2729C4.73364 22.2583 4.77812 22.2522 4.82249 22.2551C4.70544 22.2481 4.59478 22.1994 4.51062 22.1177C4.42646 22.0361 4.37438 21.9269 4.36385 21.8102C4.35333 21.6934 4.38505 21.5767 4.45326 21.4813C4.52146 21.3859 4.62162 21.3182 4.73554 21.2904C4.5955 21.2149 4.48356 21.0963 4.41636 20.9521C4.34917 20.8079 4.33032 20.6458 4.36261 20.4901C4.38429 20.4149 4.42167 20.3451 4.47227 20.2854C4.52286 20.2257 4.58554 20.1775 4.65615 20.1437C4.72677 20.11 4.80373 20.0917 4.88196 20.0899C4.96019 20.0881 5.03792 20.1029 5.11001 20.1333L6.28871 21.4021Z" fill="#FDD39D"/>
<path d="M6.2887 21.4021L5.10999 20.1333C5.10073 20.1283 5.09057 20.1268 5.08109 20.1225C5.09581 20.2481 5.12969 20.3707 5.18154 20.486C5.18789 20.4987 5.19213 20.5114 5.19849 20.5241C5.36866 20.9072 5.59641 21.2621 5.87384 21.5763C5.91569 21.6262 5.96944 21.6648 6.03012 21.6885C6.09081 21.7122 6.15648 21.7202 6.22108 21.7118C6.31109 21.711 6.48071 21.5142 6.49125 21.4591C6.497 21.4287 6.49948 21.3974 6.50437 21.3667C6.4866 21.3648 6.30613 21.4024 6.2887 21.4021Z" fill="#E9B77A"/>
<path d="M7.75807 20.0786C7.60352 20.0257 6.57463 19.3991 6.15121 19.289C5.7786 19.1937 5.28529 19.2085 5.12438 19.5578C5.08826 19.6649 5.07469 19.7783 5.08453 19.8909C5.09437 20.0035 5.1274 20.1128 5.18155 20.212C5.1879 20.2247 5.19214 20.2374 5.1985 20.2501C5.36867 20.6332 5.59642 20.9881 5.87385 21.3023C5.96487 21.4018 6.10463 21.5077 6.22109 21.4378C6.2427 21.4247 6.26084 21.4065 6.27401 21.3849C6.30323 21.3372 6.32197 21.2838 6.32901 21.2282C6.36539 21.0363 6.38383 20.8414 6.38411 20.646" fill="#FDD39D"/>
<path d="M13.4193 23.9636C12.7797 23.8682 12.0721 23.782 11.3384 23.7085C11.1545 22.8309 11.0483 22.7781 10.8578 21.8806C10.6795 21.0409 10.5624 20.4675 10.5944 20.0329C11.0153 20.0164 11.4361 19.9999 11.8568 19.9834C11.8568 19.9834 12.9853 22.4456 13.4193 23.9636Z" fill="#E9B77A"/>
<path d="M22.1487 30.8451C24.3454 29.7171 26.5141 28.5861 27.6834 27.6703C29.9325 25.909 31.1993 24.9168 32.0272 23.0464C32.3488 22.3196 33.2319 20.2415 32.5176 17.7919C32.3298 17.1477 31.7269 15.0803 29.6451 13.9386C27.565 12.7979 25.4805 13.3887 24.8811 13.5883C23.8263 13.9453 22.8839 14.5735 22.1487 15.4099C21.4136 14.5735 20.4712 13.9453 19.4164 13.5883C18.817 13.3887 16.7324 12.7978 14.6523 13.9386C12.5706 15.0803 11.9677 17.1477 11.7799 17.7919C11.0656 20.2415 11.9487 22.3196 12.2703 23.0464C13.0982 24.9168 14.365 25.909 16.614 27.6703C17.7834 28.5861 19.9521 29.7171 22.1487 30.8451Z" fill="#F73A5A"/>
<path d="M32.5175 17.7919C32.2773 16.9024 31.8637 16.0692 31.3004 15.34C31.7707 17.5694 30.9857 19.4188 30.6861 20.0956C29.8583 21.966 28.5915 22.9582 26.3424 24.7196C26.284 24.7654 26.223 24.8117 26.1597 24.8585C24.6086 25.9998 22.7334 26.6153 20.8078 26.6153C18.8821 26.6153 17.0069 25.9998 15.4559 24.8586C15.3925 24.8117 15.3316 24.7654 15.2731 24.7196C13.6429 23.4429 12.5304 22.5692 11.7255 21.4734C11.8588 22.0132 12.0411 22.5397 12.2703 23.0464C13.0981 24.9168 14.365 25.909 16.614 27.6703C17.7834 28.5861 19.9521 29.7171 22.1487 30.8451C24.3453 29.7171 26.514 28.5861 27.6834 27.6703C29.9324 25.909 31.1993 24.9168 32.0271 23.0464C32.3487 22.3196 33.2319 20.2415 32.5175 17.7919Z" fill="#DB2D4E"/>
<path d="M12.5886 17.432C12.3378 17.4324 12.0888 17.4737 11.8514 17.5543C11.8232 17.6451 11.7987 17.7273 11.7799 17.7919C11.3985 19.1478 11.4226 20.5857 11.8494 21.928C12.1667 22.0353 12.5035 22.0723 12.8365 22.0365C13.1695 22.0006 13.4908 21.8927 13.7779 21.7202C14.0651 21.5478 14.3112 21.3149 14.4994 21.0378C14.6875 20.7607 14.8131 20.446 14.8675 20.1155C14.9218 19.785 14.9036 19.4466 14.8141 19.1238C14.7245 18.801 14.5659 18.5016 14.3491 18.2463C14.1322 17.991 13.8625 17.7859 13.5585 17.6453C13.2545 17.5047 12.9235 17.4319 12.5886 17.432ZM32.4143 22.0383C32.8723 20.665 32.9083 19.1859 32.5176 17.7919C32.4915 17.7024 32.4562 17.5833 32.4113 17.4452C31.844 17.5055 31.319 17.7736 30.9377 18.1979C30.5564 18.6222 30.3456 19.1727 30.3459 19.7431C30.3463 20.3136 30.5578 20.8638 30.9398 21.2876C31.3217 21.7114 31.8469 21.9788 32.4143 22.0383Z" fill="#F95F81"/>
<path d="M32.7844 19.4867C32.7814 19.3875 32.776 19.2871 32.7684 19.1855C32.766 19.1538 32.764 19.1223 32.7612 19.0904C32.7499 18.9643 32.7356 18.8367 32.7166 18.7073C32.7135 18.6859 32.7092 18.6641 32.7059 18.6427C32.6885 18.5317 32.668 18.4197 32.6442 18.3066C32.6368 18.2706 32.6292 18.2347 32.6211 18.1986C32.5908 18.0641 32.5575 17.9288 32.5176 17.7919L32.5165 17.7883C32.4914 17.7022 32.4576 17.5886 32.4153 17.458L32.411 17.4452C32.0362 17.4851 31.6769 17.6168 31.365 17.8286C31.2431 18.6117 31.0147 19.3744 30.6862 20.0956C30.6213 20.2421 30.5527 20.3817 30.4822 20.5182C30.6285 20.9278 30.8874 21.2877 31.2292 21.5567C31.571 21.8256 31.9818 21.9925 32.4143 22.0383L32.4144 22.0379C32.4271 21.9981 32.4395 21.9562 32.452 21.9148C32.4647 21.8728 32.4773 21.8301 32.4897 21.7865C32.5012 21.746 32.5127 21.7052 32.5239 21.6634C32.5438 21.5889 32.5633 21.5127 32.5819 21.4342C32.5899 21.4004 32.5974 21.3654 32.6051 21.3308C32.6203 21.2631 32.6348 21.194 32.6486 21.1236C32.6557 21.087 32.6627 21.05 32.6694 21.0127C32.6843 20.9304 32.698 20.8464 32.7106 20.7609C32.7135 20.7408 32.717 20.7215 32.7198 20.7013C32.7341 20.5977 32.7459 20.4911 32.7561 20.383C32.7593 20.3499 32.7619 20.3162 32.7646 20.2826C32.7719 20.1921 32.7776 20.1003 32.7816 20.0071C32.7827 19.981 32.7844 19.9553 32.7853 19.929C32.7889 19.8127 32.7896 19.6943 32.7873 19.574C32.7868 19.5451 32.7854 19.5158 32.7844 19.4867Z" fill="#D65476"/>
<path d="M23.8749 22.0017C25.4953 22.0017 26.8088 20.7705 26.8088 19.2518C26.8088 17.733 25.4953 16.5019 23.8749 16.5019C22.2546 16.5019 20.941 17.733 20.941 19.2518C20.941 20.7705 22.2546 22.0017 23.8749 22.0017Z" fill="white"/>
<path d="M19.1606 20.8985C20.1439 20.8985 20.9411 19.9966 20.9411 18.8841C20.9411 17.7715 20.1439 16.8696 19.1606 16.8696C18.1772 16.8696 17.3801 17.7715 17.3801 18.8841C17.3801 19.9966 18.1772 20.8985 19.1606 20.8985Z" fill="white"/>
<path d="M28.2423 20.5097C27.6206 23.854 19.261 23.7267 16.9576 22.5438C16.9576 22.5438 18.6134 27.3476 22.663 27.1059C26.7126 26.8642 28.0405 21.5953 28.2423 20.5097Z" fill="#333333"/>
<path d="M23.8749 22.1075C22.1987 22.1075 20.835 20.8265 20.835 19.2517C20.835 17.6769 22.1987 16.3959 23.8749 16.3959C25.551 16.3959 26.9147 17.6769 26.9147 19.2517C26.9147 20.8265 25.551 22.1075 23.8749 22.1075ZM23.8749 16.6076C22.3154 16.6076 21.0467 17.7937 21.0467 19.2517C21.0467 20.7097 22.3154 21.8958 23.8749 21.8958C25.4344 21.8958 26.703 20.7097 26.703 19.2517C26.703 17.7937 25.4344 16.6076 23.8749 16.6076Z" fill="#333333"/>
<path d="M23.8999 21.1159C24.7309 21.1159 25.4045 20.4198 25.4045 19.5611C25.4045 18.7024 24.7309 18.0063 23.8999 18.0063C23.0689 18.0063 22.3953 18.7024 22.3953 19.5611C22.3953 20.4198 23.0689 21.1159 23.8999 21.1159Z" fill="#333333"/>
<path d="M24.6208 20.1253C24.862 20.1253 25.0575 19.9298 25.0575 19.6886C25.0575 19.4473 24.862 19.2518 24.6208 19.2518C24.3796 19.2518 24.184 19.4473 24.184 19.6886C24.184 19.9298 24.3796 20.1253 24.6208 20.1253Z" fill="white"/>
<path d="M19.1605 21.0043C18.1206 21.0043 17.2744 20.0531 17.2744 18.8839C17.2744 17.7147 18.1206 16.7637 19.1605 16.7637C20.2005 16.7637 21.0467 17.7147 21.0467 18.8839C21.0467 20.0531 20.2005 21.0043 19.1605 21.0043ZM19.1605 16.9754C18.2372 16.9754 17.4861 17.8316 17.4861 18.8839C17.4861 19.9365 18.2372 20.7926 19.1605 20.7926C20.0839 20.7926 20.835 19.9365 20.835 18.8839C20.835 17.8316 20.0839 16.9754 19.1605 16.9754Z" fill="#333333"/>
<path d="M19.9024 20.5098C20.3121 20.5098 20.6442 20.1777 20.6442 19.7679C20.6442 19.3582 20.3121 19.0261 19.9024 19.0261C19.4927 19.0261 19.1605 19.3582 19.1605 19.7679C19.1605 20.1777 19.4927 20.5098 19.9024 20.5098Z" fill="#333333"/>
<path d="M20.0466 19.754C20.1781 19.754 20.2848 19.6473 20.2848 19.5158C20.2848 19.3843 20.1781 19.2776 20.0466 19.2776C19.915 19.2776 19.8084 19.3843 19.8084 19.5158C19.8084 19.6473 19.915 19.754 20.0466 19.754Z" fill="white"/>
<path d="M14.6552 21.3753C15.2356 21.6163 15.8041 21.8818 16.3793 22.1346C16.6624 22.2595 16.9547 22.4103 17.2286 22.5163C17.5164 22.6188 17.8108 22.7016 18.1098 22.764C18.7164 22.884 19.33 22.9653 19.947 23.0072C20.5648 23.0536 21.1856 23.0735 21.8056 23.0604C22.4252 23.0547 23.0442 23.0173 23.6601 22.9483C24.2746 22.8845 24.8839 22.7778 25.4835 22.6291C26.0805 22.4866 26.6529 22.2558 27.1818 21.9444C27.4433 21.7868 27.6753 21.5849 27.8676 21.3477C28.055 21.1008 28.1832 20.8141 28.2423 20.5097C28.2273 20.8297 28.1299 21.1405 27.9597 21.4118C27.7823 21.6827 27.5592 21.9205 27.3003 22.1148C26.775 22.4859 26.1916 22.7671 25.5741 22.9469C24.3508 23.2987 23.0846 23.4793 21.8118 23.4835C20.5405 23.5127 19.2708 23.3785 18.0338 23.0842C17.7221 23.0037 17.4171 22.899 17.1218 22.771C16.9723 22.6984 16.8306 22.6238 16.6966 22.547L16.2856 22.3184C15.7426 22.0037 15.1929 21.7017 14.6552 21.3753Z" fill="#333333"/>
<path d="M19.9475 24.812L19.7988 25.0821L19.76 24.792L19.3956 24.7524C19.3956 24.7524 19.2795 25.2227 19.1063 25.7931C19.5776 26.2439 20.1365 26.593 20.7484 26.8188C21.3602 27.0447 22.0119 27.1423 22.663 27.1059C24.056 27.0227 25.1268 26.3447 25.9407 25.4468C25.8855 25.1007 25.791 24.762 25.6593 24.4372L25.0396 24.6635L25.0476 24.8813L24.9113 24.7337C24.9113 24.7337 23.6502 24.8926 23.1931 24.8158C23.1931 24.8158 24.6079 24.5794 24.7616 24.5018L25.1079 23.7878L25.0996 24.4149C25.0996 24.4149 25.4583 24.4417 25.6832 23.8358C25.7779 23.5807 25.9365 23.0818 26.1443 22.5779C24.0772 23.4035 20.948 23.4524 18.7901 23.0798C19.0369 23.5203 19.2401 23.9838 19.3967 24.4638L19.6515 24.474L19.6704 23.9979L19.8182 24.5936C19.8182 24.5936 20.9171 24.7252 21.0935 24.7071C20.7153 24.7752 20.3318 24.8103 19.9475 24.812Z" fill="white"/>
<path d="M22.372 27.2734C18.4659 27.2734 16.8241 22.6434 16.8075 22.5955L16.6787 22.2221L17.0302 22.4026C18.7156 23.2682 23.8364 23.5554 26.4939 22.2508C27.4163 21.7982 27.9519 21.2026 28.0861 20.4808L28.3983 20.5387C28.3493 20.8023 27.1471 26.9974 22.6726 27.2645C22.5711 27.2705 22.4706 27.2734 22.372 27.2734ZM17.2514 22.8467C17.7278 23.9352 19.407 27.1489 22.6536 26.9473C25.7159 26.7646 27.1671 23.5891 27.7526 21.7544C27.4275 22.0773 27.049 22.3417 26.6339 22.5359C24.021 23.8182 19.2945 23.6303 17.2514 22.8467Z" fill="#333333"/>
<path d="M20.7451 15.2282C20.8161 15.0791 20.7227 14.8864 20.5364 14.7976C20.3501 14.7088 20.1415 14.7576 20.0704 14.9067C19.9994 15.0557 20.0929 15.2485 20.2792 15.3373C20.4655 15.4261 20.6741 15.3772 20.7451 15.2282Z" fill="white"/>
<path d="M20.3627 28.9618C20.4509 28.8222 20.3809 28.6197 20.2064 28.5096C20.0319 28.3994 19.819 28.4232 19.7308 28.5628C19.6427 28.7024 19.7127 28.9049 19.8872 29.0151C20.0617 29.1253 20.2746 29.1014 20.3627 28.9618Z" fill="white"/>
<path d="M13.8493 16.761C13.8133 16.7609 13.7778 16.7517 13.7463 16.7341C13.7149 16.7165 13.6884 16.6911 13.6695 16.6605C13.6505 16.6298 13.6397 16.5948 13.6381 16.5587C13.6365 16.5227 13.6441 16.4869 13.6602 16.4546C13.6779 16.419 15.4849 12.9086 19.223 14.4481C19.2487 14.4587 19.2721 14.4742 19.2919 14.4938C19.3116 14.5134 19.3273 14.5368 19.338 14.5624C19.3487 14.5881 19.3542 14.6157 19.3543 14.6435C19.3544 14.6713 19.349 14.6989 19.3384 14.7246C19.3278 14.7504 19.3122 14.7737 19.2925 14.7935C19.2729 14.8132 19.2496 14.8288 19.2239 14.8395C19.1982 14.8502 19.1706 14.8557 19.1428 14.8557C19.115 14.8558 19.0874 14.8503 19.0617 14.8397C15.6927 13.4524 14.1045 16.5131 14.0387 16.6442C14.0211 16.6793 13.994 16.7088 13.9606 16.7295C13.9272 16.7501 13.8886 16.761 13.8493 16.761ZM19.0363 28.2993C19.0004 28.2994 18.965 28.2902 18.9337 28.2726C15.112 26.1495 13.7199 23.5889 13.6626 23.481C13.6364 23.4314 13.6308 23.3735 13.6473 23.3199C13.6637 23.2662 13.7007 23.2213 13.7502 23.1949C13.7997 23.1686 13.8576 23.1629 13.9113 23.1792C13.965 23.1955 14.01 23.2324 14.0364 23.2819C14.0499 23.3073 15.4353 25.8448 19.1392 27.9025C19.1802 27.9253 19.2125 27.9611 19.231 28.0042C19.2495 28.0473 19.2531 28.0954 19.2413 28.1408C19.2295 28.1862 19.203 28.2264 19.1659 28.2551C19.1288 28.2838 19.0832 28.2993 19.0363 28.2993V28.2993Z" fill="white"/>
</svg>
