<svg width="420" height="349" viewBox="0 0 420 349" fill="none" xmlns="http://www.w3.org/2000/svg">
<g opacity="0.2" filter="url(#filter0_f_718_363)">
<path d="M219.023 280.819C291.935 280.819 351.041 246.079 351.041 203.226C351.041 160.372 291.935 125.633 219.023 125.633C146.111 125.633 87.0039 160.372 87.0039 203.226C87.0039 246.079 146.111 280.819 219.023 280.819Z" fill="#FFF200"/>
</g>
<g opacity="0.2" filter="url(#filter1_f_718_363)">
<path d="M200.904 223.916C273.815 223.916 332.922 189.176 332.922 146.323C332.922 103.469 273.815 68.7297 200.904 68.7297C127.992 68.7297 68.8848 103.469 68.8848 146.323C68.8848 189.176 127.992 223.916 200.904 223.916Z" fill="#D14BDE"/>
</g>
<defs>
<filter id="filter0_f_718_363" x="19.0039" y="57.6326" width="400.038" height="291.186" filterUnits="userSpaceOnUse" color-interpolation-filters="sRGB">
<feFlood flood-opacity="0" result="BackgroundImageFix"/>
<feBlend mode="normal" in="SourceGraphic" in2="BackgroundImageFix" result="shape"/>
<feGaussianBlur stdDeviation="34" result="effect1_foregroundBlur_718_363"/>
</filter>
<filter id="filter1_f_718_363" x="0.884766" y="0.729675" width="400.038" height="291.186" filterUnits="userSpaceOnUse" color-interpolation-filters="sRGB">
<feFlood flood-opacity="0" result="BackgroundImageFix"/>
<feBlend mode="normal" in="SourceGraphic" in2="BackgroundImageFix" result="shape"/>
<feGaussianBlur stdDeviation="34" result="effect1_foregroundBlur_718_363"/>
</filter>
</defs>
</svg>
