<svg width="100" height="100" viewBox="0 0 100 100" fill="none" xmlns="http://www.w3.org/2000/svg">
<path d="M73.8 42.1C70.4 37.2 66.6 34.1 66.5 34C66.2 33.8 65.8 33.7 65.4 33.9C65 34.1 64.8 34.5 64.9 34.9C65.2 37.8 65.1 42.9 63.7 44.4C63.5 44.7 63.2 44.8 62.9 44.8C59.2 44.8 59.1 43.6 59 39.7C58.9 36.1 58.7 30.8 54.7 24.3C50.8 18 47.5 14.6 44.8 14.1C43.6 13.9 42.9 14.4 42.7 14.5C42.4 14.8 42.2 15.3 42.4 15.7C42.4 15.8 45.6 22.7 41.5 27.6C41 28.2 40.4 28.9 39.7 29.7C33.5 36.7 20.7 51.4 26.4 66.5C32.4 82.8 45.1 84.9 51.4 84.9C53.6 84.9 55 84.6 55 84.6C58.3 83.9 75.2 79.7 78.8 61.8C80.1 55.6 78.4 48.7 73.8 42.1ZM76.9 61.6C73.6 78.2 57.8 82.2 54.7 82.8C54.5 82.8 35.9 86.3 28.3 65.9C23.1 51.9 35.4 37.8 41.3 31.1C42 30.3 42.7 29.5 43.2 28.9C46.9 24.3 45.7 18.7 44.8 16.1C46 16.5 48.7 18.2 53 25.2C56.7 31.2 56.8 36.1 57 39.6C57.1 43.5 57.2 46.7 62.9 46.7C63.8 46.7 64.5 46.3 65.1 45.7C66.8 43.9 67 39.8 67 37.1C70.8 40.8 79.1 50.4 76.9 61.6Z" fill="black"/>
<path d="M62.1 65.9C60.6 64.3 58.2 61.1 55.6 57.5C54.4 55.8 53.2 54 52 52.3C51.7 51.9 51.2 51.7 50.8 51.9C50.3 52.1 50.1 52.6 50.3 53.1C50.5 54 49.9001 55.5 48.7001 57.3C47.9001 58.6 46.7 60 45.5 61.5C45.2 61.8 44.9 62.2 44.6 62.5C43.7 63.6 42.7001 64.6 41.7001 65.6C41.1001 66.2 40.8 67 40.8 67.9V68C40.8 68.3 40.8 68.7 40.8 69C41.3 74.6 46 79 51.8 79C57.5 79 62.3 74.6 62.8 69C62.8 68.7 62.8 68.3 62.8 68V67.9C62.9 67 62.6 66.3 62.1 65.9ZM51.9001 76.8C46.9001 76.8 42.8001 72.6 42.9001 67.6C43.0001 67.4 43.1 67.2 43.1 67C45 65.1 47.9001 62 49.9001 59C50.4001 58.3 50.9001 57.5 51.2001 56.8C51.4001 56.3 51.7 55.9 51.8 55.5C52.1 55.9 52.4001 56.4 52.7001 56.8C53.2001 57.5 53.7 58.3 54.3 59.1C56.4 62 58.8 65.2 60.5 67.1C60.6 67.3 60.6 67.5 60.7001 67.6C60.9001 72.7 56.9001 76.8 51.9001 76.8Z" fill="black"/>
</svg>
