<svg width="24" height="20" viewBox="-0.04 -0.04 24 20" fill="none" xmlns="http://www.w3.org/2000/svg" stroke-width="0.04">
<path d="M23.5938 12.0388C23.5938 9.57125 21.3713 7.41875 18.2738 6.8325C17.74 3.4375 13.9163 0.8125 9.375 0.8125C4.43125 0.8125 0.40625 3.875 0.40625 7.655C0.40625 10.1488 2.15625 12.415 5.0175 13.6225C5.0095 14.5151 4.73863 15.3855 4.23875 16.125C4.18985 16.1973 4.16372 16.2827 4.16372 16.37C4.16372 16.4573 4.18985 16.5427 4.23875 16.615C4.27984 16.6744 4.33476 16.723 4.39877 16.7566C4.46278 16.7901 4.53399 16.8076 4.60625 16.8075H4.69375C6.39927 16.4583 7.97973 15.6575 9.27 14.4888H9.375C9.7425 14.4888 10.0575 14.4888 10.355 14.445C11.0778 15.4061 12.0232 16.1774 13.1099 16.6926C14.1966 17.2077 15.3921 17.4513 16.5938 17.4025H16.6375C17.6436 18.2883 18.8663 18.8921 20.1812 19.1525H20.2688C20.341 19.1526 20.4122 19.1351 20.4762 19.1016C20.5402 19.068 20.5952 19.0194 20.6363 18.96C20.683 18.8868 20.7078 18.8018 20.7078 18.715C20.7078 18.6282 20.683 18.5432 20.6363 18.47C20.2727 17.938 20.0721 17.3117 20.0588 16.6675C22.2463 15.7488 23.5938 13.9813 23.5938 12.0388ZM9.06875 13.605C9.00589 13.6045 8.94366 13.6175 8.88628 13.6431C8.82891 13.6688 8.77773 13.7065 8.73625 13.7538C7.8291 14.6661 6.70196 15.3292 5.46375 15.6788C5.77549 14.9288 5.91599 14.1187 5.875 13.3075C5.87105 13.2219 5.84255 13.1393 5.7929 13.0695C5.74325 12.9996 5.67455 12.9456 5.595 12.9138C2.97 11.8725 1.2725 9.86 1.2725 7.66375C1.28125 4.365 4.9125 1.6875 9.375 1.6875C13.6187 1.6875 17.1625 4.12875 17.4513 7.2525C17.4513 7.38375 17.4513 7.52375 17.4513 7.655C17.4646 7.83559 17.4646 8.01691 17.4513 8.1975C17.11 10.91 14.2488 13.15 10.5213 13.535C10.1474 13.5881 9.77001 13.6115 9.3925 13.605H9.06875ZM19.4638 15.9938C19.3842 16.0256 19.3155 16.0796 19.2659 16.1495C19.2162 16.2193 19.1877 16.3019 19.1838 16.3875C19.1574 16.9551 19.2406 17.5226 19.4287 18.0588C18.5698 17.7899 17.791 17.3118 17.1625 16.6675C17.121 16.6203 17.0698 16.5825 17.0125 16.5569C16.9551 16.5312 16.8929 16.5182 16.83 16.5188H16.5938C15.6111 16.5538 14.6326 16.3747 13.7261 15.994C12.8196 15.6133 12.0067 15.0399 11.3438 14.3138L11.6675 14.2438L12.1137 14.1475L12.4288 14.06L12.8487 13.9375C12.9537 13.9375 13.05 13.8675 13.155 13.8325L13.5487 13.6838L13.8463 13.5525L14.2138 13.3863L14.4938 13.2375C14.6114 13.1805 14.7253 13.1162 14.835 13.045L15.1062 12.8788L15.4212 12.6687L15.675 12.485L15.9638 12.2575L16.1913 12.0563L16.4538 11.8113L16.6637 11.6013L16.9 11.33L17.075 11.1113C17.1499 11.0157 17.22 10.9164 17.285 10.8138L17.4425 10.595C17.5037 10.49 17.565 10.385 17.6175 10.28L17.7487 10.0525C17.8013 9.93 17.8538 9.81625 17.8975 9.69375C17.9412 9.57125 17.9587 9.55375 17.985 9.4925C18.0552 9.30976 18.1137 9.12271 18.16 8.9325V8.81875C18.1976 8.6541 18.2268 8.48763 18.2475 8.32C18.2475 8.24125 18.2475 8.1625 18.2475 8.0925C18.2475 8.0225 18.2475 7.865 18.2475 7.7425C20.8112 8.31125 22.6225 10.0613 22.6225 12.0475C22.7188 13.6925 21.4675 15.25 19.4638 15.9938Z" fill="#909090"/>
</svg>
