<svg width="100" height="100" viewBox="0 0 100 100" fill="none" xmlns="http://www.w3.org/2000/svg">
<path d="M50 85.7C69.7 85.7 85.7 69.7 85.7 50C85.7 30.3 69.7 14.3 50 14.3C30.3 14.3 14.3 30.3 14.3 50C14.3 69.7 30.3 85.7 50 85.7ZM26.4 74C32.7 65.8 41.1 61.3 50 61.3C58.9 61.3 67.2 65.8 73.6 74C67.5 80 59.2 83.6 50 83.6C40.8 83.6 32.5 80 26.4 74ZM50 16.3C68.6 16.3 83.7 31.4 83.7 50C83.7 58.7 80.4 66.6 75 72.6C68.3 64 59.4 59.3 50 59.3C40.6 59.3 31.7 64 25 72.6C19.6 66.6 16.3 58.7 16.3 50C16.3 31.4 31.4 16.3 50 16.3Z" fill="black"/>
<path d="M50 52.3C57.3 52.3 63.2 46.4 63.2 39.1C63.2 31.8 57.3 25.9 50 25.9C42.7 25.9 36.8 31.8 36.8 39.1C36.8 46.4 42.7 52.3 50 52.3ZM50 27.9C56.2 27.9 61.2 32.9 61.2 39.1C61.2 45.3 56.2 50.3 50 50.3C43.8 50.3 38.8 45.3 38.8 39.1C38.8 33 43.8 27.9 50 27.9Z" fill="black"/>
</svg>
