<svg width="100" height="100" viewBox="0 0 100 100" fill="none" xmlns="http://www.w3.org/2000/svg">
<path d="M69.6 50C68.8 47.7 66.2 46.4 63.8 47.3C62.9 47.6 62.2 48.2 61.7 48.9L61.6 48.7C60.8 46.4 58.2 45.1 55.8 46C54.9 46.3 54.2 46.9 53.7 47.6L53.6 47.4C53.2 46.3 52.4 45.4 51.3 44.8C50.2 44.3 49 44.2 47.9 44.6C47 44.9 46.3 45.4 45.8 46.2L42.9 38C42.5 36.9 41.7 36 40.6 35.4C39.5 34.9 38.3 34.8 37.2 35.2C36.1 35.6 35.2 36.4 34.6 37.5C34.1 38.6 34 39.8 34.4 40.9L42.4 63.2C36.9 58.1 34.1 59.5 33.5 59.9C32.2 60.7 31.6 62 31.5 63.4C31.4 71.1 50.8 84.9 53 86.4C53.2 86.5 53.4 86.6 53.6 86.6C53.9 86.6 54.2 86.5 54.4 86.2C54.7 85.7 54.6 85.1 54.2 84.8C48.4 80.8 33.5 69.1 33.6 63.4C33.6 62.6 33.9 62 34.7 61.5C36.5 60.3 41.5 64.7 44.3 68C44.7 68.4 45.3 68.5 45.7 68.1C46.1 67.8 46.2 67.2 45.9 66.8C45.9 66.7 45.9 66.6 45.9 66.6L36.5 40.2C36.3 39.6 36.3 38.9 36.6 38.3C36.9 37.7 37.4 37.2 38 37C38.6 36.8 39.3 36.8 39.9 37.1C40.5 37.4 41 37.9 41.2 38.5L48.6 59.2C48.8 59.7 49.4 60 49.9 59.8C50.4 59.6 50.7 59 50.5 58.5L49.9 57L47.2 49.5C47 48.9 47 48.2 47.3 47.6C47.6 47 48.1 46.5 48.7 46.3C49.3 46.1 50 46.1 50.6 46.4C51.2 46.7 51.7 47.2 51.9 47.8L54.4 54.7L55 56.3L55.3 57.2C55.5 57.7 56.1 58 56.6 57.8C57.1 57.6 57.4 57 57.2 56.5L56.4 54.3L55.2 50.8C54.7 49.5 55.4 48.1 56.7 47.6C58 47.1 59.4 47.8 59.9 49.1L61.2 52.9L61.5 53.8L62.2 55.7C62.4 56.2 63 56.5 63.5 56.3C64 56.1 64.3 55.5 64.1 55L63.1 52.2C62.6 50.9 63.3 49.5 64.6 49C65.9 48.5 67.3 49.2 67.8 50.5L69.1 54.3C70.8 59.2 74.8 72.9 72.5 77.8C72.3 78.3 72.5 78.9 73 79.1C73.1 79.2 73.3 79.2 73.4 79.2C73.8 79.2 74.1 79 74.3 78.6C77.5 71.9 71.2 54.3 71 53.6L69.6 50Z" fill="black"/>
<path d="M82 24.8C58.1 11.3 27.5 21.5 20.6 24.2L21.4 21.4C21.6 20.9 21.2 20.3 20.7 20.2C20.2 20 19.6 20.4 19.5 20.9L17.9 26.4C17.7 26.9 18.1 27.5 18.6 27.6L24.1 29.2C24.2 29.2 24.3 29.2 24.4 29.2C24.8 29.2 25.2 28.9 25.4 28.5C25.6 28 25.2 27.4 24.7 27.3L21.1 26.3C27.2 23.9 57.6 13.4 81.1 26.7C81.6 27 82.2 26.8 82.5 26.3C82.6 25.7 82.5 25.1 82 24.8Z" fill="black"/>
</svg>
